<svg width="41" height="41" viewBox="0 0 41 41" fill="none" xmlns="http://www.w3.org/2000/svg">
<path fill-rule="evenodd" clip-rule="evenodd" d="M11.5963 0.18389C10.9838 0.523946 10.521 1.10423 10.3445 1.75315C10.2682 2.03372 10.2494 2.3029 10.2278 3.42603C10.2012 4.80901 10.2419 5.46135 10.3792 5.85334C10.6427 6.60527 11.275 7.23425 12.0262 7.49146C12.2124 7.55526 12.535 7.57402 13.8229 7.59612L15.3926 7.623L15.405 8.90132L15.4175 10.1796L10.6959 10.1878C4.83397 10.1979 5.1206 10.1921 5.01189 10.3029C4.7635 10.5561 0.307664 16.5816 0.177026 16.841L0.0234286 17.1459V17.9676V18.7893L0.187429 19.1141C0.513601 19.7602 1.17565 20.2839 1.90446 20.4725C2.7433 20.6894 3.74262 20.3766 4.39323 19.6934C4.4772 19.6052 4.67794 19.3353 4.83927 19.0937C5.1377 18.6467 5.248 18.5424 5.248 18.7072C5.248 18.7575 5.32545 18.9536 5.42011 19.143C5.74909 19.8014 6.355 20.2794 7.1056 20.4727C7.88025 20.6723 8.84119 20.4001 9.43773 19.8122C9.79385 19.4612 10.012 19.0866 10.1563 18.5784L10.2424 18.2752L10.3277 18.6019C10.5731 19.5413 11.3556 20.2784 12.3234 20.482C13.6229 20.7553 14.944 19.9366 15.3035 18.6353C15.3481 18.474 15.3974 18.3421 15.413 18.3421C15.4287 18.3421 15.4697 18.4633 15.5041 18.6114C15.6557 19.2642 16.2036 19.9468 16.823 20.2547C17.1558 20.4201 17.6599 20.5453 17.9931 20.5453C18.6312 20.5453 19.2945 20.2659 19.7712 19.7963C20.1299 19.443 20.3543 19.071 20.4661 18.6441C20.5096 18.478 20.5565 18.3421 20.5703 18.3421C20.5841 18.3421 20.631 18.478 20.6745 18.6441C20.7862 19.0706 21.0106 19.4428 21.369 19.7963C22.3846 20.7982 23.9428 20.7872 24.9578 19.7711C25.3597 19.3687 25.6748 18.7889 25.677 18.4477C25.6783 18.2529 25.753 18.3396 25.8387 18.6353C26.22 19.9509 27.5198 20.7565 28.8171 20.4814C29.8163 20.2695 30.5337 19.5882 30.82 18.5795L30.9058 18.2774L31.0061 18.6421C31.2531 19.5395 31.9514 20.2178 32.8708 20.4532C33.3372 20.5727 33.6731 20.5717 34.1128 20.4497C34.6007 20.3144 34.8821 20.1508 35.2401 19.7943C35.5439 19.4919 35.8926 18.913 35.8926 18.7111C35.8926 18.5419 35.9866 18.6277 36.2723 19.0575C36.9076 20.0135 37.462 20.3903 38.41 20.5107C38.7841 20.5582 38.887 20.5548 39.1747 20.4857C39.6918 20.3615 40.0789 20.1507 40.4327 19.8007C40.6047 19.6306 40.8026 19.3885 40.8727 19.2627L41 19.0339V17.963V16.892L40.8674 16.6668C40.736 16.4437 36.561 10.8304 36.2085 10.4029L36.0251 10.1805L31.0037 10.1803C28.2419 10.1802 25.924 10.18 25.8527 10.1799L25.7231 10.1796L25.7355 8.90132L25.748 7.623L27.3177 7.59612C28.6055 7.57402 28.9282 7.55526 29.1144 7.49146C29.8654 7.23425 30.4967 6.60649 30.7616 5.85334C30.8975 5.46712 30.9395 4.76698 30.9103 3.37757C30.8863 2.23211 30.8688 1.99418 30.788 1.71642C30.5999 1.06952 30.0955 0.458881 29.5052 0.163156L29.1794 0L20.5523 0.00060984L11.9251 0.00121968L11.5963 0.18389ZM15.4064 2.12177L15.4202 2.43744L14.4458 2.45015L13.4714 2.46281V2.76773V3.07265L14.432 3.09611L15.3926 3.11957L15.4053 4.06951L15.4179 5.01945H14.1263H12.8346L12.8484 4.7028C12.859 4.46229 12.8792 4.38465 12.9326 4.37982C12.9712 4.37635 13.3982 4.3711 13.8814 4.36809L14.76 4.3627V4.05778V3.75286H13.7994H12.8389V2.76698V1.78111L14.1157 1.79359L15.3926 1.80606L15.4064 2.12177ZM17.3267 2.4524L17.3398 3.09874L17.9827 3.0857L18.6257 3.07265L18.6387 2.42763L18.6518 1.78261H18.955H19.2583V3.40103V5.01945H18.9537H18.6491V4.38616V3.75286H17.9931H17.3371V4.38616V5.01945H17.0091H16.6811V3.43232C16.6811 2.55936 16.6961 1.83018 16.7144 1.81188C16.7326 1.79359 16.8749 1.78481 17.0307 1.79237L17.3137 1.80606L17.3267 2.4524ZM23.7923 3.41276L23.8046 5.01945H22.1875H20.5703V3.43232C20.5703 2.55936 20.5846 1.83079 20.6021 1.81329C20.6197 1.79574 21.3418 1.78692 22.207 1.79373L23.78 1.80606L23.7923 3.41276ZM28.3017 2.76773V3.75286H27.0131H25.7246V4.38831V5.02372L25.4083 5.00988L25.092 4.996L25.0821 3.42885C25.0766 2.56691 25.0831 1.84387 25.0965 1.82215C25.11 1.80039 25.8366 1.78261 26.7113 1.78261H28.3017V2.76773ZM21.2263 3.40103V4.3627H22.1869H23.1474V3.40103V2.43936H22.1869H21.2263V3.40103ZM25.7443 2.50259C25.7305 2.53848 25.7257 2.68142 25.7336 2.82023L25.748 3.07265H26.7086H27.6691V2.76773V2.46281L26.7192 2.4501C25.9428 2.43973 25.7647 2.4493 25.7443 2.50259ZM23.1474 8.88321V10.1669L22.93 10.1967C22.6463 10.2356 19.9962 10.2349 18.8717 10.1955L17.9931 10.1648V8.91347C17.9931 8.22519 18.0072 7.648 18.0244 7.63083C18.0415 7.61362 19.2013 7.59954 20.6015 7.59954H23.1474V8.88321ZM5.07215 28.9557L5.084 36.0509H20.5703H36.0566L36.0684 28.9557L36.0803 21.8604H20.5703H5.06029L5.07215 28.9557ZM15.4045 28.9557L15.3926 33.4708H11.5269H7.66114L7.64919 28.9557L7.63725 24.4405H11.5269H15.4165L15.4045 28.9557ZM33.4914 28.9557L33.4794 33.4708H25.748H18.0166L18.0046 28.9557L17.9927 24.4405H25.748H33.5033L33.4914 28.9557ZM9.72286 27.1312C9.272 27.3424 8.94971 27.8213 8.94971 28.2801C8.94971 28.9824 9.55309 29.6007 10.2383 29.6007C10.9223 29.6007 11.5269 28.9824 11.5269 28.2827C11.5269 27.3982 10.5222 26.7569 9.72286 27.1312ZM3.28 37.4093C2.27192 37.5554 1.46208 38.0024 0.813581 38.7707C0.335263 39.3373 0 40.1323 0 40.7V41H20.5H41V40.4382V39.8764L40.7875 39.4697C40.1872 38.3208 39.167 37.6028 37.8606 37.4097C37.2428 37.3184 3.90967 37.318 3.28 37.4093Z" fill="white"/>
</svg>
