<svg width="43" height="41" viewBox="0 0 43 41" fill="none" xmlns="http://www.w3.org/2000/svg">
<path fill-rule="evenodd" clip-rule="evenodd" d="M20.9038 0.0496615C20.0007 0.185746 19.2219 0.572979 18.5525 1.21885C18.0172 1.73523 17.6392 2.37638 17.434 3.1157C17.3157 3.54174 17.3157 4.68965 17.434 5.11569C17.7729 6.33696 18.565 7.2739 19.7205 7.82049C21.9798 8.88917 24.7095 7.81151 25.5539 5.51743C25.758 4.96305 25.8155 4.56871 25.7878 3.91454C25.7431 2.85906 25.3471 1.9814 24.5706 1.21681C23.6169 0.277916 22.2585 -0.154508 20.9038 0.0496615ZM10.2775 1.45234C9.83378 1.53451 9.55061 1.63042 9.11777 1.84502C7.72386 2.53621 6.86732 4.09897 7.05635 5.60607C7.24297 7.09445 8.28994 8.33789 9.73577 8.7884C10.5398 9.03891 11.4573 9.02725 12.2565 8.75636C12.9854 8.50926 13.722 7.95768 14.1743 7.32036C14.3893 7.01743 14.6423 6.45552 14.738 6.06858C14.8441 5.63918 14.8571 4.83527 14.7647 4.41254C14.4589 3.01421 13.3372 1.87757 11.9083 1.51808C11.456 1.4043 10.7009 1.37387 10.2775 1.45234ZM31.3225 1.45885C30.0709 1.67847 29.045 2.43331 28.4923 3.54123C28.2034 4.1205 28.1145 4.49752 28.1114 5.15824C28.106 6.28952 28.4914 7.16896 29.3262 7.93066C30.0891 8.62683 30.9622 8.96674 31.9875 8.96674C33.0603 8.96674 34.031 8.57589 34.7754 7.84419C35.5023 7.12973 35.8936 6.1973 35.8936 5.17952C35.8936 4.46778 35.713 3.84501 35.3158 3.18723C35.1157 2.85578 34.3607 2.13323 34.0064 1.93404C33.1786 1.46868 32.2269 1.30017 31.3225 1.45885ZM18.1625 9.07457C16.606 9.40261 15.4428 10.4976 15.0166 12.0361C14.9493 12.2789 14.9398 12.6656 14.9258 15.754C14.915 18.1242 14.9253 19.3137 14.9589 19.5625C15.1168 20.7316 15.8163 21.7796 16.8529 22.3999L17.1091 22.5533V28.5685V34.5837L18.744 34.5835L20.3788 34.5834L20.9432 30.9559C21.2536 28.9608 21.5216 27.2614 21.5387 27.1795L21.5699 27.0305L21.5985 27.1795C21.6143 27.2614 21.8752 28.9178 22.1783 30.8603C22.4814 32.8028 22.7391 34.4353 22.751 34.4879L22.7725 34.5837H24.2639H25.7552L25.7556 28.5731L25.756 22.5625L26.0708 22.3741C26.7439 21.9715 27.4024 21.2066 27.682 20.5026C27.9524 19.8216 27.9497 19.8672 27.9497 15.988C27.9497 12.0753 27.9535 12.136 27.6648 11.4447C27.1935 10.3163 26.2267 9.49087 24.9433 9.12108C24.6463 9.03551 24.5335 9.03228 21.5419 9.02351C19.0134 9.01611 18.3956 9.02542 18.1625 9.07457ZM29.3583 9.69385C29.1795 9.71466 29.0232 9.74151 29.0108 9.75351C28.9984 9.76551 29.0422 9.86627 29.1081 9.97742C29.4101 10.487 29.6615 11.1127 29.8219 11.754C29.8884 12.0197 29.8981 12.4532 29.9126 15.7752C29.9263 18.9354 29.9188 19.5598 29.8628 19.9029C29.679 21.0291 29.1618 22.0936 28.3945 22.9244L28.1252 23.216V28.1977V33.1794H29.5043H30.8833L30.9076 33.0624C30.9211 32.9981 31.1603 31.4805 31.4394 29.6901C31.7185 27.8997 31.9609 26.4009 31.9781 26.3596C31.9956 26.3175 32.2387 27.7514 32.5301 29.6149C32.8165 31.4467 33.0609 32.998 33.0732 33.0624L33.0957 33.1794H34.6044H36.113V27.6525V22.1256L36.4093 21.9398C37.0179 21.558 37.5548 20.9249 37.8252 20.2702C38.0947 19.6177 38.0924 19.6558 38.0776 15.964C38.0624 12.2036 38.0821 12.4451 37.7329 11.7327C37.2459 10.7388 36.3819 10.0509 35.2622 9.76555C34.9202 9.67836 34.8029 9.6744 32.2947 9.66538C30.8584 9.66019 29.5371 9.673 29.3583 9.69385ZM7.65105 9.77853C6.36479 10.085 5.31313 11.0992 4.94077 12.3923C4.84308 12.7314 4.84272 12.7454 4.84272 16.0944C4.84272 19.4559 4.84272 19.4561 4.94187 19.7965C5.2099 20.7165 5.80451 21.5086 6.57204 21.9679L6.8391 22.1277V27.6536V33.1794L8.3423 33.1793L9.8455 33.1791L10.3238 30.1261C10.5868 28.4469 10.8325 26.8816 10.8698 26.6475C10.9284 26.2801 10.9418 26.2424 10.9684 26.371C10.9852 26.4529 11.2333 28.0182 11.5195 29.8495L12.0399 33.1791L13.4115 33.1793L14.783 33.1794V28.1742V23.169L14.5256 22.9023C13.8371 22.1886 13.2788 21.0753 13.0961 20.0518C12.994 19.4797 12.994 12.4963 13.0961 11.9242C13.1918 11.3881 13.4292 10.7238 13.708 10.2127C13.8788 9.89951 13.9303 9.76857 13.8922 9.74466C13.8632 9.72636 12.526 9.70768 10.9208 9.70312C8.1509 9.69529 7.98425 9.69912 7.65105 9.77853ZM38.6147 30.7393C38.9034 30.9549 39.224 31.3 39.3465 31.5271C39.4504 31.7196 39.469 31.8054 39.4697 32.0943C39.4705 32.3932 39.4545 32.4633 39.3389 32.6683C38.4597 34.2273 34.2212 35.5505 28.235 36.1348C24.4129 36.5078 20.163 36.5528 16.2313 36.2617C9.54385 35.7667 4.593 34.353 3.6618 32.6725C3.4737 32.333 3.45373 31.9521 3.60703 31.6275C3.75344 31.3174 3.93352 31.0983 4.24368 30.8527C4.52966 30.6263 4.4806 30.6333 3.83271 30.9107C2.48576 31.4874 1.29992 32.2513 0.721639 32.9149C-0.946931 34.8297 0.305133 36.8015 4.19664 38.3873C10.4884 40.9512 22.2547 41.7466 31.6364 40.2422C40.7066 38.7877 45.0736 35.6148 42.0456 32.6791C41.3628 32.0171 40.1859 31.3145 38.8945 30.7979C38.4977 30.6392 38.4741 30.6343 38.6147 30.7393Z" fill="white"/>
</svg>
